<?xml version="1.0" encoding="UTF-8"?>
<svg id="Layer_2" data-name="Layer 2" xmlns="http://www.w3.org/2000/svg" viewBox="0 0 544.8 7664.49">
  <defs>
    <style>
      .cls-1 {
        fill: none;
        stroke: #344a97;
        stroke-miterlimit: 10;
      }
    </style>
  </defs>
  <g id="Layer_1-2" data-name="Layer 1">
    <path class="cls-1" d="M508.49.01c-2.77,113.14,3.01,226.49,17.26,338.76-22.18,1.44-44.36,2.88-66.54,4.33,10.54,31.74,15.67,65.27,15.12,98.71,14.81-4.32,28.84-11.28,41.24-20.47-17.4-19.48-38.65-35.51-62.16-46.88,19.62,129.06,39.24,258.11,58.86,387.17-164.82.7-329.67-4.81-494.07-16.53C-3.27,916.03.62,1090.12,29.7,1259.92c20.26-15.71,47.07-22.7,72.42-18.87-19.05-15.77-40.07-29.16-62.41-39.76,17.87,32.25,32.75,66.16,44.37,101.16,79.42-46.76,173.19-61.08,264.38-74.52,10.69-1.57,22.1-3.05,31.89,1.52,8.23,3.85,14.02,11.41,19.34,18.78,38.19,52.86,69.98,110.34,94.47,170.79-154.65,48.26-306.77,104.6-455.55,168.71-9.62,179.05-21.75,359.46-22.62,538.76-.03,5.96.05,12.3,3.31,17.3,3.01,4.62,8.21,7.25,13.16,9.68,59.32,29.02,118.63,58.05,177.95,87.07-1.62-40.42,2.97-81.08,13.56-120.12,19.08,42.24,43.57,82.04,72.68,118.11-48.97-20.4-97.94-40.8-146.91-61.2,95.41-16.76,188.62-46.05,276.48-86.87,26.82,161.82,57.2,323.06,91.09,483.55-79.53-6.7-158.6-18.9-236.45-36.49-7.31,49.51-6.45,100.22,2.53,149.46,16.15-28.54,32.29-57.08,48.44-85.62-85.97,40.81-169.24,87.31-249.07,139.1,36.46,89.36,62.12,183.12,76.27,278.59-9.82-71.31-13.39-143.49-10.65-215.42-6.7,67.1-13.4,134.2-20.1,201.31-1.8,18.06-3.49,36.98,3.44,53.76,6.05,14.64,17.97,25.91,29.56,36.71,45.65,42.55,91.3,85.1,136.95,127.66-17.12,17.59-34.24,35.18-51.36,52.76-2.65,79.01-10.88,159.46-13.52,238.47-.27,8.06-.36,16.75,4.25,23.36,5.11,7.32,14.51,10.02,23.18,12.17,65.93,16.34,132.62,29.65,199.78,39.87-1.35,59.21-2.7,118.42-4.05,177.63-.14,6.25-.5,13.07-4.65,17.74-3.62,4.08-9.28,5.53-14.6,6.75-97.63,22.46-197.2,36.51-297.24,41.94-9.05.49-18.81,1.18-25.76,6.99-5.56,4.65-8.29,11.76-10.77,18.57-26.23,72.1-47.88,145.87-64.78,220.71,44.32-6.69,88.63-13.37,132.95-20.06-11.65,82.48-19.24,165.52-22.73,248.75-17.65-11.09-35.3-22.17-52.96-33.26,32.21,3.27,64.88,1.98,96.74-3.83-9.28,43.35-18.56,86.7-27.84,130.05,40.4.8,80.86-1.7,120.85-7.46,8.84,44.58,15.66,89.55,20.45,134.75,40.02-10.4,81.2-16.32,122.53-17.59-18.95-38.18-37.9-76.36-56.85-114.54-29.81,140.25-55.69,281.34-77.59,423.05-7.92,51.28-31.21,111.62-44.46,161.78-1.42,5.37-2.58,11.83,1.24,15.85,3.05,3.22,8.03,3.42,12.46,3.4,82.71-.55,165.38-8.05,246.84-22.41,11.98,79.52,19.45,159.72,22.38,240.09-25.89,3.18-51.33,9.98-75.35,20.13,6.69-15.27,13.37-30.54,20.06-45.81,11.71,17.69,23.42,35.37,35.13,53.06,9.62,14.52,19.39,29.4,23.71,46.27,3.58,13.99,3.21,28.65,2.82,43.09-3.58,132.33-7.16,264.67-10.74,397-.16,5.98-.64,12.68-5.12,16.64-3.11,2.75-7.45,3.51-11.55,4.15-144.4,22.43-291.12,29.84-437.04,22.08-6.92,85.14-13.85,170.28-20.77,255.42,42.17,12.1,84.35,24.21,126.52,36.31-7.35-35.63-14.7-71.25-22.05-106.88-10.96,50.02-16.32,101.27-15.95,152.48,53.53-10.57,109.31-9.58,162.42,2.89,10.17,2.39,20.74,5.2,30.91,2.82,7.51-1.76,14.07-6.2,20.4-10.62,37.31-26.09,72.98-54.52,106.74-85.06,4.57,35.15,9.14,70.29,13.7,105.44-39.94-33.12-82.97-62.52-128.34-87.7,44.78,8.57,89.55,17.14,134.33,25.71,7.16,1.37,14.88,3.05,19.7,8.52,4.28,4.86,5.33,11.67,6.21,18.08,10.24,74.61,20.48,149.22,30.73,223.83,14.81,107.9-6.74,214.11-11.48,322.92-.33,7.6-.93,15.87-6.04,21.49-5.47,6.02-14.37,7.13-22.48,7.86-35.06,3.16-70.12,6.33-105.18,9.49-7.4.67-15.23,1.49-21.17,5.97-18.79,14.15-2.6,48.06-17.88,65.94,33.53-28.75,61.91-63.5,83.38-102.11,63.54,132.14,91.89,280.99,81.38,427.24-46.27,16.81-92.54,33.62-138.81,50.42-16.63-28.77-38.1-54.74-63.24-76.48-3.18,23.45-9.35,46.5-18.3,68.41,34.06-12.79,66.85-28.97,97.72-48.23,22.7,22.98,42.67,48.65,59.36,76.3-19.72,10.5-39.44,21.01-59.15,31.51,42.96,2.63,86.13,1.79,128.96-2.53-5.26,114.49-.54,229.44,14.09,343.11-65.54-17.83-129.55-41.27-191.1-70-26.88,38.5-50.24,79.46-69.69,122.2,51.34-25.72,106.31-44.17,162.78-54.63-2.37-28.79-17.03-56.36-39.57-74.42-72.43,52.34-159.54,79.46-239.77,118.82-57.97,28.44-112.62,63.59-162.67,104.38"/>
  </g>
</svg>