<?xml version="1.0" encoding="UTF-8"?>
<svg id="Layer_2" data-name="Layer 2" xmlns="http://www.w3.org/2000/svg" viewBox="0 0 158.97 1063.22">
  <defs>
    <style>
      .cls-1 {
        fill: none;
        stroke: #ed2024;
        stroke-miterlimit: 10;
      }
    </style>
  </defs>
  <g id="Layer_1-2" data-name="Layer 1">
    <path class="cls-1" d="M95.88.02c-3.27,96.55-20.3,289.32-35.08,384.79,15.46-20.4,32.19-39.85,50.05-58.18-2.76,16.69-1.67,34,3.17,50.2-18.69-19.61-40.75-36-64.93-48.22,25.71,33.6,48.48,69.44,67.97,106.99-5.19-7.85-10.59-15.92-18.43-21.12s-18.84-6.85-26.51-1.4c-4.5,3.2-7.22,8.27-9.78,13.17-6.86,13.1-13.72,26.21-20.58,39.31,14.95-33.71,40.07-62.83,71.22-82.57-14.16,62.07-26.46,124.55-36.9,187.35-23.06-13.82-48.35-23.91-74.58-29.78,38.35-18.63,76.71-37.26,115.06-55.9,15.68-7.62,32.13-15.9,41.63-30.51-23.36-7.88-48.6-10.08-72.97-6.35-2.98.46-6.21,1.15-8.11,3.49-1.99,2.46-1.88,5.94-1.64,9.09,5.18,67.17,28.17,132.89,65.99,188.65-21.31,2.16-46.17,6.64-55.72,25.82-3.91,7.86-4.42,16.92-4.84,25.69-5.77,120.81-9.51,241.72-11.22,362.65"/>
  </g>
</svg>