<?xml version="1.0" encoding="UTF-8"?>
<svg id="Layer_2" data-name="Layer 2" xmlns="http://www.w3.org/2000/svg" viewBox="0 0 2790.44 11018.39">
  <defs>
    <style>
      .cls-1 {
        fill: none;
        stroke: #3954a5;
        stroke-miterlimit: 10;
        stroke-width: 2.48px;
      }
    </style>
  </defs>
  <g id="Layer_1-2" data-name="Layer 1">
    <path class="cls-1" d="M1710.05.01c-3.17,267.91-.07,535.9,9.31,803.67-79.12,2.95-158.55-2.52-236.51-16.29-10.73,84.14-33.72,166.71-68,244.29,38.28-16.82,76.55-33.65,114.83-50.47-36.08-28.74-72.16-57.48-108.24-86.22,63.82,169.87,96.32,351.44,95.39,532.9-40.72-41.73-86.9-78.13-136.98-107.99,158.89,54.15,317.78,108.3,476.67,162.46-.3-58.85-.61-117.71-.91-176.56-60.43,87.51-150.67,154.04-252.15,185.86,58.84,201.01,117.69,402.03,176.53,603.04,5.48,18.71,11,37.8,10.42,57.28-.61,20.34-7.83,39.83-14.96,58.89-25.57,68.31-51.15,136.62-76.72,204.93-197.57.79-395.13,1.58-592.7,2.37-20.68.08-42.09.32-60.88,8.94-23.09,10.59-38.86,32.19-53.57,52.9-28.98,40.8-57.97,81.6-86.95,122.4,94.63-65.85,184.49-138.56,268.62-217.39-122.48-14.88-246.96-13.22-369,4.92,66.14,82.76,132.28,165.52,198.42,248.29-79.1,62.05-173.55,104.37-272.51,122.12,55.92,240.28,113.61,479.67,173.44,719.06-64.55-8.91-129.11-17.82-193.66-26.73,70.21,53.71,140.42,107.42,210.63,161.12,6.83,5.23,14.61,10.74,23.16,9.79,8.18-.9,14.44-7.45,19.93-13.58,61.99-69.22,123.97-138.44,185.96-207.66,7.45-8.32,15.42-19.52,10.73-29.66-3.54-7.66-12.69-10.63-20.88-12.67-66.11-16.53-134.18-25.23-202.32-25.87,125.66,215.41,276.59,416.08,448.69,596.57-83.03,38.89-171.49,66.19-261.99,80.86,206.27,9.33,412.53,18.67,618.8,28,25.63,1.16,55.19,4.44,69.29,25.87,10.24,15.56,8.7,35.78,6.73,54.3-19.28,181.62-42.77,367.45-.11,545.05,164.29-28.84,328.58-57.68,492.86-86.51,8.67-1.52,17.83-3.01,26.08.06,21.42,7.97,21.66,37.69,18.63,60.34-20.07,149.85-12.5,303.36,22.21,450.51-117.64-76.27-276.7-31.11-409.59-75.81,62-46.34,133.7-79.62,209.11-97.05-15.79,76.12-41.72,150.12-76.91,219.44-47.25-1.66-65.8-60.22-95.59-96.94-54.26-66.86-154.75-63.01-240.83-64.92-114.95-2.55-229.4-26.2-335.94-69.44-6.56,49.41-13.12,98.83-19.68,148.24-62.74-6.08-124.6-21.25-183.03-44.89,5.16,46.79-3.24,95-23.91,137.3,37.28-21.29,72.7-45.84,105.72-73.28-53.61-15.24-109.3-23.13-165.03-23.37-16.95,45.16-38.25,88.69-63.52,129.78-6.35,10.33-13.41,20.94-24.13,26.61-12.12,6.43-26.68,5.39-40.35,4.2-55.06-4.83-110.13-9.65-165.19-14.48,38.04,78.4,82.1,153.87,131.68,225.53-9.96-51.4-17.19-103.32-21.64-155.48-15.35,54.46-26.38,112.31-47.56,164.43-22.43,55.2-45.82,110.01-70.14,164.4-48.63,108.79-100.98,215.92-156.93,321.13,197.39,43.62,395.91,82.17,595.28,115.6-127.54,296.24-250.45,594.48-368.68,894.56-31.61-66.62-67.97-130.99-108.71-192.45,128.97,70.03,249.54,155.51,358.31,254.03,3.42-71.29,6.83-142.59,10.25-213.88-70.35,39.17-138.5,82.31-204,129.15,418.34-30.03,837.97-42.16,1257.35-36.36,12.49.17,28.46,3.08,30.87,15.33,1.83,9.28-5.87,17.49-13.08,23.61-45.97,39.05-99.66,68.97-157.04,87.53,88.26-20.84,173.8-53.15,253.79-95.86,4.68,55.22,9.37,110.44,14.05,165.65,44.13-46.93,84.25-97.62,119.78-151.36,74.22,53.01,138.15,120.36,187.24,197.22-195.42,168.91-374.37,356.86-533.51,560.33-31.67,40.49-49.07,82.86-73.4,128.14,66.83,20.5,132.25,45.61,195.63,75.08-10.12-40.27-13.4-82.25-9.64-123.61-33.5,56.63-67,113.25-100.5,169.88,191.2,18.88,384.55,15.87,575.07-8.95,6.12-.8,12.82-1.5,18.05,1.79,7.23,4.56,8.36,14.46,8.74,23.01,8.23,184.79,16.45,369.58,24.68,554.37-56.85,36.39-113.69,72.77-170.54,109.16.65-66.37,10.32-132.64,28.68-196.42,42.3,89.48,87.07,182.17,164.27,244.11-62.47,19.49-125.05,39.01-185.42,64.25-90.29,37.74-174.85,87.9-263.8,128.69-82.71,37.93-169.16,67.7-257.68,88.75,51.69,59.75,103.38,119.5,155.06,179.25,99.24,114.72,122.42,277.08,208.11,402.25-54-34.42-116.95-54.66-180.89-58.15,138.04-6.31,276.09-12.63,414.13-18.94-6.59,289.39-22.9,578.57-48.9,866.87-95.26-4.9-191.02-.1-285.31,14.29,52.32-32.71,104.64-65.42,156.96-98.13-2.89,64.9-12.06,129.52-27.36,192.66-160.79-49.66-333.52-40.31-499.13-70.21-153.66-27.74-302.53-89.44-458.67-89.43-7.89,0-16.02.21-23.28,3.3-9.12,3.89-15.78,11.83-22.07,19.49-49.87,60.73-99.73,121.45-149.6,182.18,82.85-13.39,165.69-26.79,248.54-40.18-52.77-37.42-105.53-74.84-158.3-112.26-4.75-3.37-9.75-6.84-15.52-7.63-7.51-1.03-14.78,2.66-21.47,6.22-197.59,105.11-400.16,200.85-606.81,286.8-175.05,72.81-334.74,174.26-500.14,266.92-91.19,51.08-182.74,102.4-265.57,166.16"/>
  </g>
</svg>